<svg id="Capa_1" enable-background="new 0 0 512 512" height="20" viewBox="0 0 512 512" width="20" xmlns="http://www.w3.org/2000/svg"><g><g><path d="m319 501.976c100.907 0 183-82.093 183-183v-264.952c0-24.3-19.7-44-44-44s-44 19.7-44 44v264.952c0 52.383-42.617 95-95 95s-95-42.617-95-95v-264.952c0-24.3-19.7-44-44-44s-44 19.7-44 44v264.952c0 100.907 82.093 183 183 183z" fill="#99ebfb"/></g><g><g><g><path d="m95.596 441.976c0 11.028 8.972 20 20 20s20-8.972 20-20v-119.783h40v119.783c0 33.084-26.916 60-60 60s-60-26.916-60-60z" fill="#fff3d6"/></g></g><g><g><g><path d="m153 208.19c78.977 0 143 64.023 143 143-26.326-26.326-69.008-26.326-95.333 0 0-78.977-21.341-143-47.667-143z" fill="#fff"/><path d="m153 208.19c-26.326 0-47.667 64.023-47.667 143-26.325-26.326-69.007-25.34-95.333.986 0-78.977 64.023-143.986 143-143.986z" fill="#fff"/><path d="m153 208.19c26.326 0 47.667 64.023 47.667 143-26.325-26.326-69.008-26.326-95.333 0-.001-78.977 21.34-143 47.666-143z" fill="#ccf5fd"/></g></g></g></g><path d="m458 .024c-29.776 0-54 24.224-54 54v264.953c0 46.869-38.131 85-85 85-38.226 0-71.336-25.401-81.684-61.475 3.593-.695 7.277-1.056 11.017-1.056 15.335 0 29.752 5.972 40.596 16.815 2.859 2.859 7.16 3.715 10.898 2.167 3.737-1.548 6.173-5.194 6.173-9.239 0-54.638-28.795-102.669-72-129.741v-167.424c0-29.776-24.224-54-54-54s-54 24.224-54 54v146.567c-71.533 12.871-126 75.946-126 151.585 0 4.044 2.437 7.691 6.173 9.239 1.237.513 2.536.762 3.825.762 2.602 0 5.16-1.017 7.073-2.929 10.943-10.943 25.411-17.09 40.738-17.31 15.341-.225 29.707 5.578 40.453 16.324 1.875 1.875 4.419 2.929 7.071 2.929s5.196-1.054 7.071-2.929c3.962-3.962 8.405-7.265 13.191-9.873v93.589c0 5.514-4.486 10-10 10s-10-4.486-10-10c0-5.523-4.477-10-10-10h-40c-5.523 0-10 4.477-10 10 0 38.598 31.402 70 70 70 33.513 0 61.587-23.678 68.406-55.18 35.948 35.305 84.018 55.18 134.997 55.18 106.42 0 193-86.58 193-193v-264.954c.002-29.776-24.222-54-53.998-54zm-312 54c0-18.748 15.252-34 34-34s34 15.252 34 34v156.867c-18.699-8.162-39.328-12.701-61-12.701-2.347 0-4.679.062-7 .168zm-40.677 283.832c-13.262-10.342-29.496-15.924-46.665-15.924-.377 0-.756.002-1.134.008-12.692.182-24.938 3.386-35.896 9.256 10.028-63.948 65.121-113.006 131.372-113.006 66.229 0 121.307 48.664 131.361 112.108-10.977-5.786-23.267-8.853-36.028-8.853-17.498 0-34.111 5.768-47.667 16.401-13.555-10.634-30.168-16.401-47.667-16.401-17.502.001-34.119 5.771-47.676 16.411zm10.273 154.12c-24.146 0-44.349-17.206-48.996-40h20.71c4.127 11.641 15.249 20 28.287 20 16.542 0 30-13.458 30-30v-100.044c2.437-.312 4.906-.487 7.404-.487 4.292 0 8.507.484 12.596 1.396v99.135c-.001 27.571-22.43 50-50.001 50zm376.404-173c0 95.393-77.607 173-173 173-51.838 0-100.325-22.941-133.404-63.002v-77.379c2.83 1.961 5.513 4.178 7.999 6.665 1.875 1.875 4.419 2.929 7.071 2.929s5.196-1.054 7.071-2.929c3.314-3.314 6.964-6.167 10.87-8.539 13.325 43.665 53.775 74.254 100.392 74.254 57.897 0 105-47.103 105-105v-264.951c0-18.748 15.252-34 34-34s34 15.252 34 34v264.952z" fill="#4ab7ff"/></g></svg>
